{"title":"Almost Human S01E10 HDTV x264 AAC [GWC].mp4","uid":9601016,"size":154600879,"categoryP":"video","categoryS":"tv_shows","magnet":"?xt=urn:btih:2365b29ca91f2ccd03454fcd9da9a664f817f0df&amp;dn=Almost+Human+S01E10+HDTV+x264+AAC+%5BGWC%5D.mp4&amp;tr=udp%3A%2F%2Ftracker.openbittorrent.com%3A80&amp;tr=udp%3A%2F%2Fopen.demonii.com%3A1337&amp;tr=udp%3A%2F%2Ftracker.coppersurfer.tk%3A6969&amp;tr=udp%3A%2F%2Fexodus.desync.com%3A6969","seeders":1,"leechers":0,"uploader":"canc232","files":1,"time":1392114792,"description":"Almost Human S01E10 HDTV x264 AAC [GWC]\n\n\nSTORYLINE :\nIn a not-so-distant future, human cops and androids partner up to protect and serve. \n\n\nSCREENS : &lt;a href=&quot;\nhttp://i.imgur.com/aWPEOh5.jpg&quot; rel=&quot;nofollow&quot; target=&quot;_NEW&quot;&gt;\nhttp://i.imgur.com/aWPEOh5.jpg&lt;/a&gt; &lt;a href=&quot;\nhttp://i.imgur.com/i3uCKmT.jpg&quot; rel=&quot;nofollow&quot; target=&quot;_NEW&quot;&gt;\nhttp://i.imgur.com/i3uCKmT.jpg&lt;/a&gt; &lt;a href=&quot;\nhttp://i.imgur.com/uEBq1St.jpg&quot; rel=&quot;nofollow&quot; target=&quot;_NEW&quot;&gt;\nhttp://i.imgur.com/uEBq1St.jpg&lt;/a&gt;\n\n\nMEDIA INFO :\nGeneral \nFormat : MPEG-4 \nFormat profile : Base Media \nFile size : 147 MiB \nDuration : 43mn 19s \nOverall bit rate : 476 Kbps \n\nVideo \nFormat : AVC \nFormat profile : &lt;a class=&quot;__cf_email__&quot; href=&quot;/cdn-cgi/l/email-protection&quot; data-cfemail=&quot;0f476668674f433c213f&quot;&gt;[email&amp;#160;protected]&lt;/a&gt;&lt;script cf-hash='f9e31' type=&quot;text/javascript&quot;&gt;\n/* &lt;![CDATA[ */!function(){try{var t=&quot;currentScript&quot;in document?document.currentScript:function(){for(var t=document.getElementsByTagName(&quot;script&quot;),e=t.length;e--;)if(t[e].getAttribute(&quot;cf-hash&quot;))return t[e]}();if(t&amp;&amp;t.previousSibling){var e,r,n,i,c=t.previousSibling,a=c.getAttribute(&quot;data-cfemail&quot;);if(a){for(e=&quot;&quot;,r=parseInt(a.substr(0,2),16),n=2;a.length-n;n+=2)i=parseInt(a.substr(n,2),16)^r,e+=String.fromCharCode(i);e=document.createTextNode(e),c.parentNode.replaceChild(e,c)}}}catch(u){}}();/* ]]&gt; */&lt;/script&gt; \nFormat settings, CABAC : Yes \nFormat settings, ReFrames : 4 frames \nDuration : 43mn 19s \nBit rate : 413 Kbps \nMaximum bit rate : 2 895 Kbps \nWidth : 720 pixels \nHeight : 404 pixels \nDisplay aspect ratio : 16:9 \nFrame rate : 23.976 fps \nStream size : 128 MiB (87%) \nTitle : Almost Human S01E10 HDTV x264 AAC [GWC] \nWriting library : x264 core \n\nAudio \nFormat profile : HE-AAC / LC \nDuration : 43mn 19s \nBit rate mode : Variable \nChannel(s) : 2 channels \nSampling rate : 48.0 KHz / 24.0 KHz \nCompression mode : Lossy \nStream size : 18.6 MiB (13%) \nLanguage : English ","torrent":{"xt":"urn:btih:2365b29ca91f2ccd03454fcd9da9a664f817f0df","amp;dn":"Almost+Human+S01E10+HDTV+x264+AAC+%5BGWC%5D.mp4","amp;tr":["udp%3A%2F%2Ftracker.openbittorrent.com%3A80","udp%3A%2F%2Fopen.demonii.com%3A1337","udp%3A%2F%2Ftracker.coppersurfer.tk%3A6969","udp%3A%2F%2Fexodus.desync.com%3A6969"],"infoHash":"2365b29ca91f2ccd03454fcd9da9a664f817f0df","infoHashBuffer":{"type":"Buffer","data":[35,101,178,156,169,31,44,205,3,69,79,205,157,169,166,100,248,23,240,223]},"announce":[],"urlList":[]}}